<svg width="102" height="48" viewBox="0 0 102 48" fill="none" xmlns="http://www.w3.org/2000/svg">
<line y1="1.68005" x2="102" y2="1.68005" stroke="white" stroke-width="2"/>
<line x1="0.5" y1="2" x2="0.5" y2="46.2" stroke="white"/>
<line y1="45.7" x2="57.12" y2="45.7" stroke="white"/>
<line x1="101.5" y1="2" x2="101.5" y2="46.2" stroke="white"/>
<line x1="102" y1="46.5" x2="100" y2="46.5" stroke="white"/>
<path d="M17.9798 23.3601C17.9798 24.7334 17.5931 26.0467 16.8198 27.3001C16.0464 28.5534 15.0531 29.5667 13.8398 30.3401C12.6264 31.1134 11.3998 31.5001 10.1598 31.5001C9.43977 31.5001 8.75977 31.3534 8.11977 31.0601C7.47977 30.7534 6.95977 30.3067 6.55977 29.7201C6.15977 29.1334 5.95977 28.4267 5.95977 27.6001C5.95977 26.1867 6.32643 24.7267 7.05977 23.2201C7.7931 21.7001 8.8131 20.2734 10.1198 18.9401C10.2531 18.8201 10.3798 18.7401 10.4998 18.7001C10.6198 18.6601 10.7598 18.6401 10.9198 18.6401C11.0531 18.6401 11.1798 18.6734 11.2998 18.7401C11.4331 18.8067 11.4998 18.8867 11.4998 18.9801C11.4998 19.0334 11.4731 19.1134 11.4198 19.2201C11.3798 19.3134 11.3531 19.3734 11.3398 19.4001C11.4198 19.4001 11.5131 19.3934 11.6198 19.3801C11.7398 19.3534 11.9664 19.3401 12.2998 19.3401C12.6864 19.3401 13.2064 19.4067 13.8598 19.5401C14.5264 19.6601 15.0131 19.7867 15.3198 19.9201C16.1864 20.3067 16.8464 20.8067 17.2998 21.4201C17.7531 22.0201 17.9798 22.6667 17.9798 23.3601ZM17.1198 23.7801C17.1198 23.0067 16.9398 22.3801 16.5798 21.9001C16.2198 21.4067 15.6864 21.0001 14.9798 20.6801C14.5931 20.5067 14.1064 20.4201 13.5198 20.4201C13.3331 20.4201 13.0798 20.4334 12.7598 20.4601L12.0198 20.4801C11.3798 20.4801 11.0598 20.3467 11.0598 20.0801C11.0598 19.9867 11.0664 19.9001 11.0798 19.8201C11.0931 19.7401 11.1064 19.6867 11.1198 19.6601C10.8398 19.6601 10.6131 19.7401 10.4398 19.9001C9.34643 21.0334 8.49977 22.2401 7.89977 23.5201C7.3131 24.8001 7.01977 26.0467 7.01977 27.2601C7.01977 28.3934 7.29977 29.2201 7.85977 29.7401C8.4331 30.2467 9.2131 30.5001 10.1998 30.5001C11.3198 30.5001 12.4131 30.1801 13.4798 29.5401C14.5598 28.9001 15.4331 28.0601 16.0998 27.0201C16.7798 25.9801 17.1198 24.9001 17.1198 23.7801ZM31.6562 31.3201C31.6562 31.4801 31.5895 31.6134 31.4562 31.7201C31.3228 31.8401 31.1562 31.9001 30.9562 31.9001C30.6895 31.9001 30.4428 31.6201 30.2162 31.0601C30.0028 30.5001 29.8695 29.9201 29.8162 29.3201C29.7628 28.8134 29.7095 27.6334 29.6562 25.7801C29.6295 25.0067 29.6095 24.5267 29.5962 24.3401C28.6762 26.5801 27.6228 28.5467 26.4362 30.2401C25.2628 31.9334 24.1562 32.7801 23.1162 32.7801C22.5962 32.7801 22.1428 32.4667 21.7562 31.8401C21.3828 31.2134 21.0962 30.3734 20.8962 29.3201C20.6962 28.2534 20.5962 27.0867 20.5962 25.8201C20.5962 24.7934 20.6562 23.6334 20.7762 22.3401C20.8962 21.0334 21.0428 20.0934 21.2162 19.5201C21.2695 19.3601 21.3428 19.2334 21.4362 19.1401C21.5428 19.0334 21.6628 18.9801 21.7962 18.9801C22.1295 18.9801 22.2962 19.1067 22.2962 19.3601C22.2962 19.4001 22.1695 19.8801 21.9162 20.8001C21.6628 21.7201 21.5362 23.4401 21.5362 25.9601C21.5362 27.6267 21.6895 29.0001 21.9962 30.0801C22.3162 31.1467 22.7628 31.6801 23.3362 31.6801C23.8962 31.6801 24.5628 31.2267 25.3362 30.3201C26.1095 29.4001 26.8428 28.3067 27.5362 27.0401C28.2428 25.7734 28.7562 24.6601 29.0762 23.7001C29.2895 22.9934 29.4295 21.9334 29.4962 20.5201C29.5362 19.9734 29.5695 19.6867 29.5962 19.6601C29.7028 19.5267 29.8628 19.4601 30.0762 19.4601C30.3162 19.4601 30.4362 19.7867 30.4362 20.4401C30.4362 21.2267 30.4562 22.7201 30.4962 24.9201C30.5495 27.1201 30.6095 28.5134 30.6762 29.1001C30.7295 29.5934 30.8228 29.9801 30.9562 30.2601C31.1028 30.5401 31.2562 30.7734 31.4162 30.9601C31.5762 31.1467 31.6562 31.2667 31.6562 31.3201ZM45.2649 23.3601C45.2649 24.7334 44.8783 26.0467 44.1049 27.3001C43.3316 28.5534 42.3383 29.5667 41.1249 30.3401C39.9116 31.1134 38.6849 31.5001 37.4449 31.5001C36.7249 31.5001 36.0449 31.3534 35.4049 31.0601C34.7649 30.7534 34.2449 30.3067 33.8449 29.7201C33.4449 29.1334 33.2449 28.4267 33.2449 27.6001C33.2449 26.1867 33.6116 24.7267 34.3449 23.2201C35.0783 21.7001 36.0983 20.2734 37.4049 18.9401C37.5383 18.8201 37.6649 18.7401 37.7849 18.7001C37.9049 18.6601 38.0449 18.6401 38.2049 18.6401C38.3383 18.6401 38.4649 18.6734 38.5849 18.7401C38.7183 18.8067 38.7849 18.8867 38.7849 18.9801C38.7849 19.0334 38.7583 19.1134 38.7049 19.2201C38.6649 19.3134 38.6383 19.3734 38.6249 19.4001C38.7049 19.4001 38.7983 19.3934 38.9049 19.3801C39.0249 19.3534 39.2516 19.3401 39.5849 19.3401C39.9716 19.3401 40.4916 19.4067 41.1449 19.5401C41.8116 19.6601 42.2983 19.7867 42.6049 19.9201C43.4716 20.3067 44.1316 20.8067 44.5849 21.4201C45.0383 22.0201 45.2649 22.6667 45.2649 23.3601ZM44.4049 23.7801C44.4049 23.0067 44.2249 22.3801 43.8649 21.9001C43.5049 21.4067 42.9716 21.0001 42.2649 20.6801C41.8783 20.5067 41.3916 20.4201 40.8049 20.4201C40.6183 20.4201 40.3649 20.4334 40.0449 20.4601L39.3049 20.4801C38.6649 20.4801 38.3449 20.3467 38.3449 20.0801C38.3449 19.9867 38.3516 19.9001 38.3649 19.8201C38.3783 19.7401 38.3916 19.6867 38.4049 19.6601C38.1249 19.6601 37.8983 19.7401 37.7249 19.9001C36.6316 21.0334 35.7849 22.2401 35.1849 23.5201C34.5983 24.8001 34.3049 26.0467 34.3049 27.2601C34.3049 28.3934 34.5849 29.2201 35.1449 29.7401C35.7183 30.2467 36.4983 30.5001 37.4849 30.5001C38.6049 30.5001 39.6983 30.1801 40.7649 29.5401C41.8449 28.9001 42.7183 28.0601 43.3849 27.0201C44.0649 25.9801 44.4049 24.9001 44.4049 23.7801ZM64.4035 18.8001C64.4035 19.0534 64.2768 19.2334 64.0235 19.3401C63.7702 19.4467 63.3968 19.5467 62.9035 19.6401C62.3568 19.7467 61.6635 19.8534 60.8235 19.9601C59.9835 20.0534 59.3035 20.1134 58.7835 20.1401C58.7435 20.7134 58.6902 22.3667 58.6235 25.1001C58.5568 27.8334 58.5168 29.8534 58.5035 31.1601C59.2235 31.1467 60.1702 31.1001 61.3435 31.0201C62.3302 30.9667 62.8835 30.9401 63.0035 30.9401C63.2435 30.9401 63.4568 30.9934 63.6435 31.1001C63.8435 31.2067 63.9435 31.3734 63.9435 31.6001C63.9435 31.7867 63.9102 31.9201 63.8435 32.0001C63.7902 32.0801 63.6635 32.1201 63.4635 32.1201C63.3835 32.1201 63.1635 32.1001 62.8035 32.0601C62.5368 32.0067 62.3102 31.9801 62.1235 31.9801C61.4968 31.9801 60.2435 32.0201 58.3635 32.1001C58.2968 32.1934 58.2168 32.2601 58.1235 32.3001C58.0435 32.3534 57.9702 32.3801 57.9035 32.3801C57.8235 32.3801 57.7435 32.3601 57.6635 32.3201C57.5835 32.2801 57.5368 32.2201 57.5235 32.1401L56.6235 32.2401C55.5835 32.3734 54.8102 32.4401 54.3035 32.4401C53.8635 32.4401 53.5302 32.3467 53.3035 32.1601C53.1835 32.0534 53.1235 31.8601 53.1235 31.5801C53.1235 31.5001 53.1635 31.4001 53.2435 31.2801C53.3368 31.1601 53.4302 31.1001 53.5235 31.1001C53.5502 31.1001 53.6502 31.1401 53.8235 31.2201C54.0102 31.2867 54.1835 31.3201 54.3435 31.3201C54.8368 31.3201 55.5635 31.2934 56.5235 31.2401L57.4435 31.1801L57.5635 28.2401C57.5768 27.9334 57.5902 27.6601 57.6035 27.4201C57.6168 27.1667 57.6235 26.9534 57.6235 26.7801L57.8235 20.2401C56.4368 20.3334 55.7768 20.3801 55.8435 20.3801C54.4835 20.4867 53.6835 20.5401 53.4435 20.5401C53.2168 20.5401 53.0035 20.4667 52.8035 20.3201C52.6035 20.1734 52.5035 19.9867 52.5035 19.7601C52.5035 19.6001 52.5435 19.4734 52.6235 19.3801C52.7168 19.2867 52.8368 19.2401 52.9835 19.2401C53.0902 19.2401 53.1968 19.2467 53.3035 19.2601C53.4102 19.2734 53.5168 19.2867 53.6235 19.3001C53.9568 19.3667 54.2768 19.4001 54.5835 19.4001C54.8768 19.4001 55.4368 19.3801 56.2635 19.3401C57.0902 19.2867 57.6435 19.2534 57.9235 19.2401C57.9368 19.0667 57.9968 18.9267 58.1035 18.8201C58.2102 18.7001 58.3502 18.6401 58.5235 18.6401C58.6035 18.6401 58.6702 18.6934 58.7235 18.8001C58.7768 18.9067 58.8035 19.0267 58.8035 19.1601C59.5768 19.1334 60.9702 18.9601 62.9835 18.6401C63.1435 18.6134 63.3169 18.5401 63.5035 18.4201C63.7035 18.3001 63.8168 18.2401 63.8435 18.2401C63.9768 18.2401 64.1035 18.2934 64.2235 18.4001C64.3435 18.5067 64.4035 18.6401 64.4035 18.8001ZM77.0452 31.4201C77.0452 31.5801 76.7852 31.6601 76.2652 31.6601C76.1719 31.6601 75.5452 30.9467 74.3852 29.5201C73.2386 28.0801 72.2919 26.8534 71.5452 25.8401C71.4386 25.6934 71.0986 25.2067 70.5252 24.3801C69.6852 23.1534 69.1652 22.4134 68.9652 22.1601L68.9252 23.7001L68.9052 25.2001C68.9052 26.1467 68.8919 27.1734 68.8652 28.2801C68.8519 29.3867 68.8319 30.2667 68.8052 30.9201C68.7919 31.0801 68.7186 31.2267 68.5852 31.3601C68.4652 31.4934 68.3386 31.5601 68.2052 31.5601C68.0586 31.5601 67.9519 31.5201 67.8852 31.4401C67.8319 31.3467 67.8052 31.1734 67.8052 30.9201C67.8052 30.7601 67.8319 30.2667 67.8852 29.4401C68.0052 27.9067 68.0652 26.6201 68.0652 25.5801C68.0652 24.7534 68.0786 23.9734 68.1052 23.2401C68.1319 22.4934 68.1452 22.0334 68.1452 21.8601L68.1652 21.2801V21.2201C68.1652 21.0734 68.1852 20.9601 68.2252 20.8801C68.2786 20.7867 68.3786 20.7401 68.5252 20.7401H68.6252C68.7719 20.7401 69.0586 21.0067 69.4852 21.5401C69.9252 22.0601 70.4786 22.7734 71.1452 23.6801C71.2919 23.8667 71.4319 24.0534 71.5652 24.2401C71.6986 24.4134 71.8252 24.5801 71.9452 24.7401C72.7052 25.7134 73.1052 26.2267 73.1452 26.2801C75.0386 28.6934 76.0719 30.0667 76.2452 30.4001C76.2186 30.2934 76.1719 30.0467 76.1052 29.6601C76.0386 29.2734 75.9719 28.7667 75.9052 28.1401C75.8519 27.5134 75.8252 26.8667 75.8252 26.2001C75.8252 25.0134 75.7119 23.4467 75.4852 21.5001C75.4186 20.8601 75.3852 20.4667 75.3852 20.3201C75.3852 19.8134 75.6719 19.5601 76.2452 19.5601C76.3786 19.5601 76.4786 19.7001 76.5452 19.9801C76.6119 20.2467 76.6586 20.8201 76.6852 21.7001C76.7119 22.5801 76.7252 23.9867 76.7252 25.9201C76.7252 26.5334 76.7452 27.1334 76.7852 27.7201C76.8386 28.3067 76.8852 28.8267 76.9252 29.2801C76.9919 29.9067 77.0252 30.3801 77.0252 30.7001L77.0452 31.4201ZM90.8538 31.4201C90.8538 31.5801 90.5938 31.6601 90.0738 31.6601C89.9805 31.6601 89.3538 30.9467 88.1938 29.5201C87.0472 28.0801 86.1005 26.8534 85.3538 25.8401C85.2472 25.6934 84.9072 25.2067 84.3338 24.3801C83.4938 23.1534 82.9738 22.4134 82.7738 22.1601L82.7338 23.7001L82.7138 25.2001C82.7138 26.1467 82.7005 27.1734 82.6738 28.2801C82.6605 29.3867 82.6405 30.2667 82.6138 30.9201C82.6005 31.0801 82.5272 31.2267 82.3938 31.3601C82.2738 31.4934 82.1472 31.5601 82.0138 31.5601C81.8672 31.5601 81.7605 31.5201 81.6938 31.4401C81.6405 31.3467 81.6138 31.1734 81.6138 30.9201C81.6138 30.7601 81.6405 30.2667 81.6938 29.4401C81.8138 27.9067 81.8738 26.6201 81.8738 25.5801C81.8738 24.7534 81.8872 23.9734 81.9138 23.2401C81.9405 22.4934 81.9538 22.0334 81.9538 21.8601L81.9738 21.2801V21.2201C81.9738 21.0734 81.9938 20.9601 82.0338 20.8801C82.0872 20.7867 82.1872 20.7401 82.3338 20.7401H82.4338C82.5805 20.7401 82.8672 21.0067 83.2938 21.5401C83.7338 22.0601 84.2872 22.7734 84.9538 23.6801C85.1005 23.8667 85.2405 24.0534 85.3738 24.2401C85.5072 24.4134 85.6338 24.5801 85.7538 24.7401C86.5138 25.7134 86.9138 26.2267 86.9538 26.2801C88.8472 28.6934 89.8805 30.0667 90.0538 30.4001C90.0272 30.2934 89.9805 30.0467 89.9138 29.6601C89.8472 29.2734 89.7805 28.7667 89.7138 28.1401C89.6605 27.5134 89.6338 26.8667 89.6338 26.2001C89.6338 25.0134 89.5205 23.4467 89.2938 21.5001C89.2272 20.8601 89.1938 20.4667 89.1938 20.3201C89.1938 19.8134 89.4805 19.5601 90.0538 19.5601C90.1872 19.5601 90.2872 19.7001 90.3538 19.9801C90.4205 20.2467 90.4672 20.8201 90.4938 21.7001C90.5205 22.5801 90.5338 23.9867 90.5338 25.9201C90.5338 26.5334 90.5538 27.1334 90.5938 27.7201C90.6472 28.3067 90.6938 28.8267 90.7338 29.2801C90.8005 29.9067 90.8338 30.3801 90.8338 30.7001L90.8538 31.4201Z" fill="white"/>
<path d="M66.92 45.288V45.816H70.36V45.288H66.92ZM66.648 39.68V46.4H67.176V40.2H70.248V39.68H66.648ZM68.288 41.088H69.328V42.04H68.288V41.088ZM67.824 40.688V42.44H69.816V40.688H67.824ZM67.808 43.248H68.296V44.352H67.808V43.248ZM67.472 42.848V44.752H68.648V42.848H67.472ZM69.296 43.248H69.816V44.352H69.296V43.248ZM68.952 42.848V44.752H70.184V42.848H68.952ZM70.864 40.728V41.28H73.24V40.728H70.864ZM71.832 40.96H71.544V42.384C71.552 43.024 71.344 45.08 69.808 46.16C69.904 46.272 70.08 46.512 70.144 46.64C71.344 45.784 71.752 44.288 71.832 43.632C71.896 44.272 72.264 45.816 73.352 46.64C73.44 46.496 73.608 46.256 73.72 46.128C72.32 45.088 72.112 43 72.12 42.384V40.96H71.832ZM70.936 39.272C70.784 40.528 70.504 41.76 69.992 42.544C70.136 42.624 70.392 42.8 70.496 42.888C71.016 42.032 71.336 40.728 71.528 39.36L70.936 39.272ZM73.056 40.728V40.832C73 41.448 72.888 42.248 72.776 42.728L73.24 42.864C73.392 42.344 73.528 41.504 73.624 40.808L73.232 40.696L73.144 40.728H73.056ZM74.92 45.288V45.816H78.36V45.288H74.92ZM74.648 39.68V46.4H75.176V40.2H78.248V39.68H74.648ZM76.288 41.088H77.328V42.04H76.288V41.088ZM75.824 40.688V42.44H77.816V40.688H75.824ZM75.808 43.248H76.296V44.352H75.808V43.248ZM75.472 42.848V44.752H76.648V42.848H75.472ZM77.296 43.248H77.816V44.352H77.296V43.248ZM76.952 42.848V44.752H78.184V42.848H76.952ZM78.864 40.728V41.28H81.24V40.728H78.864ZM79.832 40.96H79.544V42.384C79.552 43.024 79.344 45.08 77.808 46.16C77.904 46.272 78.08 46.512 78.144 46.64C79.344 45.784 79.752 44.288 79.832 43.632C79.896 44.272 80.264 45.816 81.352 46.64C81.44 46.496 81.608 46.256 81.72 46.128C80.32 45.088 80.112 43 80.12 42.384V40.96H79.832ZM78.936 39.272C78.784 40.528 78.504 41.76 77.992 42.544C78.136 42.624 78.392 42.8 78.496 42.888C79.016 42.032 79.336 40.728 79.528 39.36L78.936 39.272ZM81.056 40.728V40.832C81 41.448 80.888 42.248 80.776 42.728L81.24 42.864C81.392 42.344 81.528 41.504 81.624 40.808L81.232 40.696L81.144 40.728H81.056ZM82.84 39.744V40.288H84.112V44.752H82.84V45.288H84.664V39.744H82.84ZM82.872 41.4V41.92H84.512V41.4H82.872ZM82.872 43.056V43.576H84.512V43.056H82.872ZM82.56 39.744V45.984H83.112V39.744H82.56ZM85.864 41.664V42.136H88.68V41.664H85.864ZM87 40.424V45.376H87.496V40.424H87ZM86.944 41.896C86.712 42.824 86.208 43.856 85.68 44.376C85.768 44.496 85.88 44.696 85.936 44.84C86.52 44.24 87.032 43.048 87.288 42.008L86.944 41.896ZM85.096 39.616V46.656H85.632V40.136H88.872V46.592H89.432V39.616H85.096ZM85.384 45.68V46.2H89.2V45.68H85.384ZM87.544 41.896L87.216 42.008C87.488 43.008 88.008 44.152 88.48 44.752C88.568 44.632 88.728 44.488 88.84 44.4C88.352 43.888 87.824 42.832 87.544 41.896ZM91.376 46.08C91.376 46.16 91.288 46.2 91.112 46.2C91.0107 46.2 90.9173 46.1413 90.832 46.024C90.752 45.912 90.6853 45.7867 90.632 45.648C90.584 45.504 90.56 45.4107 90.56 45.368C90.56 45.3093 90.5867 45.2533 90.64 45.2C90.6987 45.1467 90.7573 45.12 90.816 45.12C90.8533 45.12 90.8827 45.136 90.904 45.168C90.9253 45.1947 90.9573 45.2427 91 45.312C91.0533 45.408 91.0987 45.4693 91.136 45.496C91.2053 45.5493 91.2613 45.648 91.304 45.792C91.352 45.936 91.376 46.032 91.376 46.08ZM93.0713 46.08C93.0713 46.16 92.9833 46.2 92.8073 46.2C92.706 46.2 92.6126 46.1413 92.5273 46.024C92.4473 45.912 92.3806 45.7867 92.3273 45.648C92.2793 45.504 92.2553 45.4107 92.2553 45.368C92.2553 45.3093 92.282 45.2533 92.3353 45.2C92.394 45.1467 92.4526 45.12 92.5113 45.12C92.5486 45.12 92.578 45.136 92.5993 45.168C92.6206 45.1947 92.6526 45.2427 92.6953 45.312C92.7486 45.408 92.794 45.4693 92.8313 45.496C92.9006 45.5493 92.9566 45.648 92.9993 45.792C93.0473 45.936 93.0713 46.032 93.0713 46.08ZM94.7666 46.08C94.7666 46.16 94.6786 46.2 94.5026 46.2C94.4013 46.2 94.308 46.1413 94.2226 46.024C94.1426 45.912 94.076 45.7867 94.0226 45.648C93.9746 45.504 93.9506 45.4107 93.9506 45.368C93.9506 45.3093 93.9773 45.2533 94.0306 45.2C94.0893 45.1467 94.148 45.12 94.2066 45.12C94.244 45.12 94.2733 45.136 94.2946 45.168C94.316 45.1947 94.348 45.2427 94.3906 45.312C94.444 45.408 94.4893 45.4693 94.5266 45.496C94.596 45.5493 94.652 45.648 94.6946 45.792C94.7426 45.936 94.7666 46.032 94.7666 46.08Z" fill="white"/>
</svg>
